<svg width="40" height="38" viewBox="0 0 40 38" fill="none" xmlns="http://www.w3.org/2000/svg" xmlns:xlink="http://www.w3.org/1999/xlink">
    <path d="M0,2.987C0,1.89 0.911,1 1.984,1L38.016,1C39.112,1 40,1.89 40,2.987L40,35.013C40,36.11 39.089,37 38.016,37L1.984,37C0.888,37 0,36.11 0,35.013L0,2.987ZM4,5L4,9L8,9L8,5L4,5ZM32,5L32,9L36,9L36,5L32,5ZM4,13L4,17L8,17L8,13L4,13ZM32,13L32,17L36,17L36,13L32,13ZM4,21L4,25L8,25L8,21L4,21ZM32,21L32,25L36,25L36,21L32,21ZM4,29L4,33L8,33L8,29L4,29ZM32,29L32,33L36,33L36,29L32,29Z" fill="#0078FF"/>
    </svg>